<svg xmlns="http://www.w3.org/2000/svg" width="15.594" height="17.327" viewBox="0 0 15.594 17.327">
  <path id="calendar_month_FILL0_wght400_GRAD0_opsz48" d="M7.3,21.327a1.332,1.332,0,0,1-1.3-1.3V6.6A1.332,1.332,0,0,1,7.3,5.3H8.707V4h1.408V5.3h7.364V4h1.408V5.3h1.408a1.332,1.332,0,0,1,1.3,1.3V20.027a1.332,1.332,0,0,1-1.3,1.3Zm0-1.3H20.294V10.714H7.3Zm0-10.613H20.294V6.6H7.3Zm0,0v0ZM13.8,14.4a.851.851,0,1,1,.617-.249A.838.838,0,0,1,13.8,14.4Zm-3.465,0a.851.851,0,1,1,.617-.249A.838.838,0,0,1,10.332,14.4Zm6.931,0a.851.851,0,1,1,.617-.249A.838.838,0,0,1,17.262,14.4ZM13.8,17.861a.851.851,0,1,1,.617-.249A.838.838,0,0,1,13.8,17.861Zm-3.465,0a.851.851,0,1,1,.617-.249A.838.838,0,0,1,10.332,17.861Zm6.931,0a.851.851,0,1,1,.617-.249A.838.838,0,0,1,17.262,17.861Z" transform="translate(-6 -4)" fill="#518432"/>
</svg>
