<svg id="Component_2257_3" data-name="Component 2257 – 3" xmlns="http://www.w3.org/2000/svg" width="121.81" height="121.81" viewBox="0 0 121.81 121.81">
  <g id="Group_38024" data-name="Group 38024" transform="translate(27.125 27.547)" style="isolation: isolate">
    <g id="Group_35896" data-name="Group 35896" transform="translate(0 0)" style="isolation: isolate">
      <path id="Path_33175" data-name="Path 33175" d="M-8040.042,2841.3c-.347-.533-.737-1.029-1.112-1.537-1.165-1.572-2.343-3.134-3.364-4.8a25.824,25.824,0,0,1-1.807-3.8c-.235-.563-.475-1.127-.711-1.691a1.084,1.084,0,0,1,.188-1.273.988.988,0,0,1,1.478-.017c.405.383.735.833,1.105,1.247.483.537.94,1.094,1.415,1.638q.99,1.14,1.989,2.272a16.6,16.6,0,0,0,3.079,2.854,9.045,9.045,0,0,0,3.289,1.4c.563.117,1.117.263,1.672.422a8.441,8.441,0,0,1,2.234,1.219,6.529,6.529,0,0,1,1.055.809,8.879,8.879,0,0,1,1.65,2.332,16.553,16.553,0,0,1,1.405,4.23c.145.724.243,1.454.348,2.222a5.372,5.372,0,0,0,.155-.962c.091-.646.215-1.284.354-1.919a14.471,14.471,0,0,1,.747-2.423,10.859,10.859,0,0,1,1.592-2.841,6.467,6.467,0,0,1,1.555-1.4c.459-.287.884-.635,1.359-.891a7.953,7.953,0,0,1,2.25-.713,9.711,9.711,0,0,0,3.824-1.612c.427-.308.831-.652,1.231-1a17.327,17.327,0,0,0,1.288-1.3c.494-.528.955-1.09,1.436-1.632.33-.378.675-.748,1.008-1.127.387-.447.752-.914,1.15-1.351.3-.325.575-.668.875-.99a7.118,7.118,0,0,1,.611-.64,1,1,0,0,1,1.228.092.993.993,0,0,1,.3,1.271c-.623,1.479-1.18,2.986-1.9,4.422a26.053,26.053,0,0,1-2.229,3.525c-.884,1.226-1.789,2.433-2.681,3.652-.037.047-.11.094-.074.2.137-.112.279-.206.4-.322.562-.553,1.134-1.094,1.671-1.67.493-.529.964-1.079,1.414-1.644s.9-1.164,1.308-1.775a21.546,21.546,0,0,0,2.136-4.063,16.734,16.734,0,0,0,.965-3.363,7.937,7.937,0,0,0,.134-1.413c0-.227.058-.453.041-.682-.054-.629-.081-1.259-.193-1.884-.088-.47-.12-.95-.179-1.426s-.12-.924-.168-1.387c-.037-.376-.044-.756-.082-1.132-.052-.471-.087-.945-.12-1.417a4.16,4.16,0,0,1,.105-1.562c.045-.137.082-.276.135-.41a1.193,1.193,0,0,1,1.027-.732c.3-.043.459.082.559.382a5.424,5.424,0,0,1,.17.892c.1.642.188,1.283.28,1.925.09.621.174,1.243.266,1.864.1.676.205,1.351.309,2.025.137.9.339,1.787.451,2.691a13.726,13.726,0,0,1,.066,2.64,23.309,23.309,0,0,1-1,5.277,20.608,20.608,0,0,1-1.541,3.689,18.727,18.727,0,0,1-4.391,5.426,37.411,37.411,0,0,1-4.781,3.291c-2.464,1.513-4.945,3-7.371,4.572a15.233,15.233,0,0,0-2.981,2.441,12.849,12.849,0,0,0-2.354,3.578c-.115.265-.23.53-.347.8a.683.683,0,0,1-.175-.346,13.187,13.187,0,0,0-1.93-3.331,12.944,12.944,0,0,0-1.4-1.5,17.7,17.7,0,0,0-2.375-1.771c-1.552-1.014-3.15-1.949-4.719-2.937-1.257-.794-2.548-1.539-3.8-2.345-.876-.562-1.751-1.128-2.581-1.755a20.289,20.289,0,0,1-2.131-1.9,18.3,18.3,0,0,1-3.629-5.255,20.991,20.991,0,0,1-1.526-4.61c-.165-.757-.281-1.52-.39-2.286a17.211,17.211,0,0,1-.108-2.94,11.609,11.609,0,0,1,.264-1.933c.121-.617.215-1.241.313-1.864.1-.6.2-1.2.288-1.8.063-.44.108-.883.175-1.322.076-.534.164-1.066.244-1.6.075-.48.142-.961.22-1.441.08-.515.391-.668.886-.487a1.542,1.542,0,0,1,.951,1.334,7.7,7.7,0,0,1-.019,1.971c-.037.575-.1,1.148-.148,1.721-.094,1.113-.229,2.222-.4,3.327a10.816,10.816,0,0,0-.073,2.659,17.777,17.777,0,0,0,2.489,7.232,27.292,27.292,0,0,0,5.188,6.318,2.1,2.1,0,0,0,.444.374.045.045,0,0,0,.056.03.159.159,0,0,1,.014.025v-.012a.038.038,0,0,0-.019-.009Zm27.925-.043.036-.018a.318.318,0,0,0-.025-.02s-.017,0-.017.009S-8012.118,2841.247-8012.117,2841.257Z" transform="translate(8059.995 -2807.385)" fill="#f3a772"/>
      <path id="Path_33176" data-name="Path 33176" d="M-7863.45,2741.726a8.294,8.294,0,0,0,.074-1.74,11.778,11.778,0,0,0-.475-2.622,19.943,19.943,0,0,0-.927-2.4,24.227,24.227,0,0,0-2.047-3.518c-.378-.554-.794-1.081-1.217-1.6-.4-.491-.814-.96-1.234-1.428-.391-.434-.83-.822-1.241-1.239-.5-.5-1.031-.975-1.567-1.434q-.929-.79-1.9-1.528a23.29,23.29,0,0,0-2.278-1.619c-.807-.474-1.613-.949-2.392-1.474a8.6,8.6,0,0,1-1.571-1.285,1.05,1.05,0,0,1-.358-.687.536.536,0,0,1,.377-.519,2.755,2.755,0,0,1,1.179-.037c.432.039.861.112,1.3.154.669.062,1.336.156,2,.261.792.127,1.585.274,2.373.441a28.566,28.566,0,0,1,3.878,1.1,19.184,19.184,0,0,1,5.111,2.75,17.044,17.044,0,0,1,2.919,2.839,16.288,16.288,0,0,1,3.031,5.582,13.823,13.823,0,0,1,.5,2.414,13.579,13.579,0,0,1,.106,2.01,15.341,15.341,0,0,1-1.284,5.667,18.83,18.83,0,0,1-2.687,4.365,23.144,23.144,0,0,1-2.14,2.252.409.409,0,0,1-.7-.084.424.424,0,0,1,.008-.408,21.448,21.448,0,0,0,1.432-2.629,19.331,19.331,0,0,0,.783-1.933,17.443,17.443,0,0,0,.593-2.21c.1-.51.181-1.021.233-1.535a8.939,8.939,0,0,0,.057-.9,14.751,14.751,0,0,0,0-1.513,15.082,15.082,0,0,0-.486-2.861,16.056,16.056,0,0,0-2.476-5.135,17.323,17.323,0,0,0-1.3-1.634c-.342-.371-.658-.768-1.029-1.108-.46-.418-.934-.823-1.4-1.235-.045-.04-.087-.028-.139-.02.362.425.73.841,1.082,1.268a21.186,21.186,0,0,1,2.057,2.988,17.833,17.833,0,0,1,1.55,3.561,16.359,16.359,0,0,1,.629,2.977,15.346,15.346,0,0,1,.111,2.385,15.888,15.888,0,0,1-.45,3.266.26.26,0,0,0,0,.062Z" transform="translate(7896.813 -2713.708)" fill="#206d30"/>
      <path id="Path_33177" data-name="Path 33177" d="M-7526.035,2609.907a3.718,3.718,0,0,1-2.3-.873,3.525,3.525,0,0,1-1.331-2.262,3.412,3.412,0,0,1,.752-2.76,3.842,3.842,0,0,1,2.66-1.41,4.075,4.075,0,0,1,2.319.381,3.544,3.544,0,0,1,2.089,2.7,3.449,3.449,0,0,1-1.619,3.551A4.205,4.205,0,0,1-7526.035,2609.907Z" transform="translate(7560.641 -2602.571)" fill="#206d30"/>
      <path id="Path_33178" data-name="Path 33178" d="M-7696.975,3846.1v-1.5c0-.965.01-1.932.005-2.9,0-.16.037-.209.208-.208,1.49.012,2.985.017,4.479.015.154,0,.19.049.18.189a4.234,4.234,0,0,0,0,.584c.01.155-.036.2-.194.2-1.062-.007-2.124,0-3.185-.009-.2,0-.255.054-.246.251a10.311,10.311,0,0,1,0,1.042c-.009.2.038.26.247.257.993-.012,1.984,0,2.974-.008.158,0,.206.038.2.195a3.672,3.672,0,0,0,0,.6c.006.139-.041.175-.176.172-1,0-2.01,0-3.014-.007-.19,0-.228.052-.227.23.011.736,0,1.474.006,2.211,0,.167-.034.231-.217.224-.353-.014-.709-.008-1.064,0a.368.368,0,0,1-.333-.153c-.589-.75-1.195-1.488-1.777-2.244-.409-.532-.856-1.035-1.271-1.562a4.374,4.374,0,0,1-.467-.624.322.322,0,0,0-.037.226c0,1.384,0,2.768,0,4.151,0,.162-.04.218-.207.209-.292-.014-.588-.009-.88,0-.117,0-.159-.025-.159-.149q.007-2.922,0-5.841c0-.109.036-.143.144-.141.412.006.824,0,1.237,0a.206.206,0,0,1,.176.085q1.685,2.139,3.384,4.273C-7697.129,3845.945-7697.059,3846.01-7696.975,3846.1Z" transform="translate(7725.833 -3789.789)" fill="#155e2d"/>
      <path id="Path_33179" data-name="Path 33179" d="M-7308.345,2760.314a.65.65,0,0,1-.275.8,29.856,29.856,0,0,0-3.024,2,27.111,27.111,0,0,0-3.078,2.732,21.272,21.272,0,0,0-3.865,5.4,16.433,16.433,0,0,0-.69,1.629c-.122-.327-.23-.611-.333-.9q-.259-.733-.511-1.468c-.106-.3-.194-.609-.324-.9-.092-.2.038-.36.13-.512a12.592,12.592,0,0,1,1.509-2.046c.429-.476.88-.93,1.342-1.368.483-.457,1.006-.872,1.524-1.292.72-.58,1.488-1.089,2.248-1.609.065-.047.17-.042.206-.138.8-.4,1.628-.743,2.444-1.113C-7310.145,2761.123-7309.245,2760.72-7308.345,2760.314Z" transform="translate(7360.17 -2753.731)" fill="#211e1c"/>
      <path id="Path_33180" data-name="Path 33180" d="M-7343.673,2750.574c-.9.4-1.8.806-2.7,1.215-.815.372-1.643.715-2.443,1.115a1.925,1.925,0,0,0-.693.244,25.57,25.57,0,0,0-4.375,2.3,9.634,9.634,0,0,0-2.139,1.9,3.621,3.621,0,0,0-.58.993c-.049.134-.092.116-.156.027a3.03,3.03,0,0,1-.568-1.33,2.488,2.488,0,0,1,.628-1.927,6.636,6.636,0,0,1,2.626-1.8c.841-.385,1.693-.742,2.553-1.078,1.11-.43,2.235-.811,3.377-1.152,1.2-.359,2.413-.652,3.635-.9A.673.673,0,0,1-7343.673,2750.574Z" transform="translate(7395.497 -2743.99)" fill="#e41d1f"/>
      <path id="Path_33181" data-name="Path 33181" d="M-6991.647,2763.878c-.192-.2-.313-.412-.469-.589a1.121,1.121,0,0,0-1.279-.344c-.268.082-.283.074-.276-.195.008-.4.043-.8.065-1.2.019-.373.041-.746.061-1.119.021-.405.031-.81.069-1.216s.027-.787.057-1.18c.031-.426.037-.853.063-1.279s.042-.857.061-1.285c.016-.448.048-.895.074-1.342.017-.323.016-.647.039-.973.034-.439.063-.879.085-1.32a4.591,4.591,0,0,1,.182-1.2,2.511,2.511,0,0,1,.532-1.172.761.761,0,0,1,.982-.03,1.067,1.067,0,0,1,.345.667,3.171,3.171,0,0,1-.095,1.558,1.085,1.085,0,0,1-.249.4,2.447,2.447,0,0,0-.7,1.706c-.009.672.065,1.34.121,2.009.037.448.063.9.094,1.346.053.752.112,1.5.158,2.257.026.421.064.842.082,1.263.026.664.12,1.326.09,1.992C-6991.57,2763.044-6991.612,2763.439-6991.647,2763.878Z" transform="translate(7047.058 -2743.156)" fill="#f3a772"/>
      <path id="Path_33182" data-name="Path 33182" d="M-7988.058,2763.879a12.4,12.4,0,0,1-.073-2.237c.032-.505.074-1.01.105-1.516q.13-1.786.248-3.571c.062-.866.134-1.731.172-2.6a2.524,2.524,0,0,0-.786-1.972,1.232,1.232,0,0,1-.287-.712,2.834,2.834,0,0,1,.061-1.328.825.825,0,0,1,.633-.656.806.806,0,0,1,.879.494,5.392,5.392,0,0,1,.427,1.486c.081.611.093,1.228.13,1.842q.073,1.3.129,2.594c.023.568.056,1.134.08,1.7.036.877.1,1.754.155,2.631.019.262.018.526.036.789.05.67.067,1.343.1,2.015.011.171-.038.187-.206.138a1.108,1.108,0,0,0-1.45.423C-7987.821,2763.543-7987.92,2763.691-7988.058,2763.879Z" transform="translate(8000.427 -2743.162)" fill="#f3a772"/>
      <path id="Path_33183" data-name="Path 33183" d="M-7454.279,3844.153a4.7,4.7,0,0,1-1.871-.376,1.781,1.781,0,0,1-1.053-1.427c-.053-.365-.048-.365.328-.365h.92c.062,0,.118-.016.128.085a1.122,1.122,0,0,0,.943,1.005,3.12,3.12,0,0,0,1.6,0,1.2,1.2,0,0,0,.345-.145.7.7,0,0,0,.377-.692.7.7,0,0,0-.523-.586,7.972,7.972,0,0,0-1.491-.3,4.912,4.912,0,0,1-1.775-.488,1.345,1.345,0,0,1-.731-1.148,1.673,1.673,0,0,1,.54-1.456,2.386,2.386,0,0,1,1.219-.512,5.409,5.409,0,0,1,2.414.111,1.964,1.964,0,0,1,1.45,1.288c.146.467.151.467-.333.467h-.84c-.056,0-.119.02-.143-.075a1.133,1.133,0,0,0-1.037-.859,2.779,2.779,0,0,0-1.264.049,1.2,1.2,0,0,0-.341.152.666.666,0,0,0-.318.641.591.591,0,0,0,.419.5,4.3,4.3,0,0,0,1.159.251,8.582,8.582,0,0,1,1.9.369,1.486,1.486,0,0,1,1.076,1.212,1.678,1.678,0,0,1-.718,1.73,3.344,3.344,0,0,1-1.609.524C-7453.765,3844.137-7454.023,3844.139-7454.279,3844.153Z" transform="translate(7491.19 -3786.119)" fill="#155e2d"/>
      <path id="Path_33184" data-name="Path 33184" d="M-7005.721,4098.938c.3,0,.575,0,.854,0s.418-.132.425-.424c0-.334.005-.667,0-1-.006-.128.031-.174.16-.167.188.009.377,0,.566,0,.071,0,.121.007.118.1a9.333,9.333,0,0,1-.056,1.489c.3,0,.6,0,.907,0,.112,0,.1-.043.077-.126a1,1,0,0,1,.775-1.318,1.15,1.15,0,0,1,1.4.744.951.951,0,0,1,.009.576c-.027.082-.016.1.075.112.415.043.5-.034.419-.443a1.361,1.361,0,0,0-1.1-1.254c-.088-.016-.113-.062-.107-.143,0-.062,0-.123,0-.188,0-.38-.089-.376.356-.269a2.06,2.06,0,0,1,1.594,2.1c0,.162.031.227.2.208.147-.015.292,0,.441,0,.386,0,.543-.161.543-.549,0-.7.009-1.389,0-2.083,0-.187.042-.253.231-.23s.415-.074.519.042c.088.1.033.33.033.5,0,.688-.02,1.376.007,2.064a.829.829,0,0,1-.825.881c-.1.008-.2.007-.294.007q-4.545,0-9.088,0a1.305,1.305,0,0,1-1.271-.585c-.066-.109-.125-.027-.172,0a1.42,1.42,0,0,1-1.287.092,1.117,1.117,0,0,1-.669-1.273,1.423,1.423,0,0,1,1.262-1.206c.48-.062.962-.02,1.443-.037.118,0,.136.051.136.147,0,.46,0,.918.006,1.378,0,.028-.006.055-.006.084-.014.626.118.762.741.758.13,0,.266,0,.4,0,.28-.01.406-.133.414-.412.005-.344.005-.685,0-1.025,0-.119.035-.158.153-.153.222.011.506-.069.649.04s.043.4.042.614A2.659,2.659,0,0,1-7005.721,4098.938Zm-3.116-1.38c-.007-.577-.007-.579-.566-.483a.794.794,0,0,0-.631,1.048.7.7,0,0,0,.619.528.635.635,0,0,0,.575-.614C-7008.826,4097.878-7008.837,4097.717-7008.837,4097.558Zm7.257,1.394a.431.431,0,0,0,.467-.469.416.416,0,0,0-.43-.456.416.416,0,0,0-.478.449A.437.437,0,0,0-7001.58,4098.952Z" transform="translate(7063.565 -4033.733)" fill="#155e2d"/>
      <path id="Path_33185" data-name="Path 33185" d="M-7294.236,3847.982c-.473,0-.91,0-1.349,0-.105,0-.124-.071-.154-.139-.175-.408-.349-.817-.519-1.226a.206.206,0,0,0-.224-.16c-.863.007-1.731.007-2.595,0a.182.182,0,0,0-.2.133c-.169.418-.346.832-.515,1.25a.2.2,0,0,1-.217.145c-.348-.009-.7-.012-1.046,0-.169,0-.2-.023-.123-.187q.885-1.952,1.752-3.912c.277-.621.558-1.241.83-1.865a.236.236,0,0,1,.262-.172c.406.012.808.006,1.214,0a.173.173,0,0,1,.194.11C-7296.036,3843.958-7295.145,3845.953-7294.236,3847.982Zm-2.479-2.488c-.347-.854-.688-1.687-1.048-2.572-.367.889-.713,1.724-1.062,2.572Z" transform="translate(7341.717 -3790.13)" fill="#155e2d"/>
      <path id="Path_33186" data-name="Path 33186" d="M-7748.367,4099.093c-1.459,0-2.921-.005-4.377,0-.165,0-.229-.023-.224-.209.015-.442.006-.442.443-.442.139,0,.33.048.406-.023.091-.085-.05-.238-.083-.364-.177-.654-.354-1.309-.557-1.956-.047-.151-.009-.148.1-.147s.21,0,.314,0c.359,0,.36,0,.469.347.2.654.393,1.311.6,1.964.021.068.01.2.13.179a.353.353,0,0,0,.293-.156.756.756,0,0,0,.079-.335c-.005-.737,0-1.474-.005-2.21,0-.148.043-.2.188-.185.194.015.452-.061.567.037s.035.366.035.56c0,.715.006,1.432,0,2.148,0,.126.04.15.152.147.246-.007.489,0,.733,0a.342.342,0,0,0,.373-.375c0-.356.006-.71,0-1.065,0-.114.027-.152.149-.155.585-.013.585-.018.585.557,0,.3,0,.6,0,.9,0,.107.021.158.134.146.083-.009.166,0,.251,0,.267-.009.383-.121.385-.384,0-.349.007-.7,0-1.044,0-.122.024-.182.159-.167.186.021.425-.077.539.043.088.093.031.329.031.5,0,.306.006.614,0,.918,0,.11.025.155.137.138a1.167,1.167,0,0,1,.124,0c.3-.012.411-.115.414-.4,0-.348,0-.694,0-1.043,0-.115.028-.167.148-.155.2.02.445-.08.566.043.092.1.028.344.028.524,0,.284.009.57,0,.855,0,.129.021.188.167.177.181-.016.363,0,.544-.007.375-.007.532-.164.534-.541.006-.694.009-1.388,0-2.085-.007-.2.06-.253.245-.234a3.331,3.331,0,0,0,.419,0c.093,0,.119.03.119.119,0,.891.006,1.781-.008,2.669a.8.8,0,0,1-.808.7c-.118.009-.238.006-.354.006h-4.126Z" transform="translate(7774.542 -4033.237)" fill="#155e2d"/>
      <path id="Path_33187" data-name="Path 33187" d="M-7255.464,4098.925c-.731-.743-.786-1.407-.19-1.963a1.311,1.311,0,0,1,1.747.07,1.257,1.257,0,0,1-.187,1.857.447.447,0,0,0,.279.038c.287,0,.575,0,.858,0,.387,0,.541-.162.544-.55,0-.7.006-1.394,0-2.087,0-.165.027-.247.213-.223s.434-.079.54.044c.093.105.029.344.029.526,0,.68-.02,1.362.009,2.044a.817.817,0,0,1-.831.874c-.6.018-1.188.009-1.779.005a.613.613,0,0,1-.39-.134.161.161,0,0,0-.236-.01.764.764,0,0,1-.491.148c-.407,0-.811,0-1.216,0a.183.183,0,0,0-.206.144,1.231,1.231,0,0,1-1.321.735c-.071,0-.078-.04-.076-.1a1.39,1.39,0,0,0,0-.186c-.015-.148.018-.219.194-.223a.543.543,0,0,0,.523-.457,1.98,1.98,0,0,1-.826.075,1.061,1.061,0,0,1-.954-1.086,1.14,1.14,0,0,1,.947-1.154,1.536,1.536,0,0,1,.705.02,1.138,1.138,0,0,1,.88,1.231c0,.361,0,.361.357.363Zm.622-1.659a.562.562,0,0,0-.577.6.776.776,0,0,0,.59.694.676.676,0,0,0,.582-.633A.6.6,0,0,0-7254.842,4097.266Zm-3.121,1.754a.556.556,0,0,0,.55-.6c0-.388-.212-.653-.521-.653a.607.607,0,0,0-.6.621A.559.559,0,0,0-7257.963,4099.02Z" transform="translate(7301.491 -4033.719)" fill="#155e2d"/>
      <path id="Path_33188" data-name="Path 33188" d="M-7470.725,4110.648c.3,0,.583-.006.86,0,.117,0,.141-.049.152-.142a1.1,1.1,0,0,1,.792-1,1.378,1.378,0,0,1,1.452.338,1.086,1.086,0,0,1-.11,1.575,1.409,1.409,0,0,1-1.847-.083c-.062-.084-.148-.063-.228-.063-.928,0-1.856-.008-2.785,0a1.3,1.3,0,0,1-1.274-.588c-.064-.107-.124-.024-.169.007a1.445,1.445,0,0,1-1.269.1,1.129,1.129,0,0,1-.689-1.286,1.46,1.46,0,0,1,1.514-1.229c.4-.022.795,0,1.193-.013.119,0,.136.05.136.149,0,.458,0,.915,0,1.375,0,.033,0,.07,0,.1-.011.606.121.74.72.738.133,0,.268.006.4,0a.365.365,0,0,0,.389-.4c.006-.34.006-.679,0-1.022,0-.119.017-.178.154-.168.19.011.379,0,.567,0,.065,0,.125,0,.125.093-.009.429-.009.861-.019,1.291A.978.978,0,0,1-7470.725,4110.648Zm-3.063-1.353h.008a.649.649,0,0,1,0-.081c-.016-.5-.016-.5-.518-.44a.8.8,0,0,0-.7,1.021.728.728,0,0,0,.624.56.634.634,0,0,0,.585-.623A4.069,4.069,0,0,0-7473.789,4109.295Zm5.367.642a.6.6,0,0,0-.6.639.57.57,0,0,0,.586.616.581.581,0,0,0,.538-.6A.6.6,0,0,0-7468.421,4109.937Z" transform="translate(7509.04 -4045.438)" fill="#155e2d"/>
      <path id="Path_33189" data-name="Path 33189" d="M-8171.4,4097.521v1.19a.8.8,0,0,1-.775.824c-.638.02-1.282.02-1.923,0a.8.8,0,0,1-.494-.22c-.063-.063-.127-.088-.193-.019a1.068,1.068,0,0,1-.778.234c-1.3.014-2.608.011-3.913.024-.139,0-.175-.041-.175-.175,0-.467,0-.467.469-.467s.92,0,1.381,0c.131,0,.173-.038.164-.167a.972.972,0,0,0-.925-.831c-.469.031-.5-.009-.455-.473.007-.076.025-.106.111-.111a2.309,2.309,0,0,1,1.369.313,1.3,1.3,0,0,1,.6,1.095c.015.151.062.195.2.181.4-.043.806-.027,1.208-.032a.079.079,0,0,0,.021,0c.132-.006.269-.059.3-.179s-.074-.221-.169-.279a1.654,1.654,0,0,0-.514-.238c-.118-.023-.208-.074-.193-.23.015-.126-.127-.265-.009-.385a1.039,1.039,0,0,1,.363-.209,2.491,2.491,0,0,1,2.234.114,1.342,1.342,0,0,1,.207.137c.173.152.154.289-.047.4a2.5,2.5,0,0,0-.687.685c-.05.065-.049.1.03.135.019.009.034.027.056.028a10.147,10.147,0,0,0,1.432.007c.222-.017.332-.225.332-.5,0-.7,0-1.4,0-2.106,0-.171.042-.241.221-.222s.409-.074.522.033.032.342.039.523C-8171.4,4096.911-8171.4,4097.214-8171.4,4097.521Zm-3.744.333a1.152,1.152,0,0,1,.488.469c.151-.152.292-.292.438-.441A1.049,1.049,0,0,0-8175.146,4097.854Z" transform="translate(8183.352 -4033.702)" fill="#155e2d"/>
      <path id="Path_33190" data-name="Path 33190" d="M-7913.042,4109.223c.032.306-.033.632.023.958a.42.42,0,0,0,.475.41h.109a1.866,1.866,0,0,0,.561-.014c.192-.062.1-.3.166-.46a1.109,1.109,0,0,1,1.056-.724,1.228,1.228,0,0,1,1.224.543,1.077,1.077,0,0,1-.766,1.691,1.279,1.279,0,0,1-1.061-.116c-.023-.016-.051-.027-.062-.048-.159-.287-.428-.242-.686-.24-.28,0-.561-.009-.839-.007a1.049,1.049,0,0,1-.89-.521c-.085-.118-.138-.1-.227-.048a1.412,1.412,0,0,1-1.592-.079.886.886,0,0,1-.336-.63,1.39,1.39,0,0,1,1.207-1.675,11.264,11.264,0,0,1,1.5-.045c.12,0,.138.052.134.149C-7913.046,4108.646-7913.042,4108.925-7913.042,4109.223Zm-.792.012h.009a.792.792,0,0,0-.008-.083c-.011-.489-.011-.489-.5-.437a.791.791,0,0,0-.721,1.007.728.728,0,0,0,.632.576.639.639,0,0,0,.585-.628C-7913.821,4109.526-7913.833,4109.378-7913.833,4109.234Zm3.363.645a.6.6,0,0,0-.6.63.569.569,0,0,0,.576.624.58.58,0,0,0,.544-.592A.6.6,0,0,0-7910.47,4109.879Z" transform="translate(7930.651 -4045.379)" fill="#155e2d"/>
      <path id="Path_33191" data-name="Path 33191" d="M-7972.413,4097.939c0-.521,0-1.044,0-1.566,0-.138.025-.2.179-.19a2.73,2.73,0,0,0,.46,0c.109,0,.159.019.159.145q-.009,1.605,0,3.21c0,.118-.029.161-.149.156-.209-.012-.48.068-.609-.035s-.034-.389-.039-.595c-.011-.375,0-.751,0-1.125Z" transform="translate(7984.829 -4033.847)" fill="#155e2d"/>
      <path id="Path_33192" data-name="Path 33192" d="M-8207,4097.592c0,.529-.007,1.058,0,1.586,0,.124-.025.173-.163.164-.171-.011-.345-.005-.522,0-.087,0-.118-.022-.118-.115,0-1.094,0-2.185.006-3.277,0-.074.019-.121.1-.114h.021c.214,0,.481-.067.629.036.13.09.035.377.036.574C-8207,4096.829-8207,4097.211-8207,4097.592Z" transform="translate(8210.318 -4033.497)" fill="#155e2d"/>
      <path id="Path_33193" data-name="Path 33193" d="M-7066.727,4097.5c0,.521-.008,1.042,0,1.564,0,.14-.044.177-.177.17-.2-.012-.465.065-.587-.033s-.037-.38-.037-.579c0-.9.008-1.809,0-2.711,0-.145.036-.2.188-.185.2.021.462-.088.578.042.1.109.03.37.03.563C-7066.727,4096.727-7066.727,4097.114-7066.727,4097.5Z" transform="translate(7117.845 -4033.393)" fill="#155e2d"/>
      <path id="Path_33194" data-name="Path 33194" d="M-6675.511,4097.488c0-.53,0-1.057,0-1.586,0-.128.032-.175.164-.163.2.019.476-.086.6.043.1.1.031.369.031.562,0,.9-.006,1.809,0,2.711,0,.162-.047.2-.2.19-.192-.016-.449.063-.565-.033s-.034-.367-.038-.558c0-.389,0-.778,0-1.167Z" transform="translate(6742.255 -4033.401)" fill="#155e2d"/>
      <path id="Path_33195" data-name="Path 33195" d="M-8267.595,4140.922a.891.891,0,0,1,.246-1.05,1.009,1.009,0,0,1,1.388.245c.05.079.05.118-.039.157-.073.036-.144.083-.213.126s-.089.041-.128-.034a.581.581,0,0,0-.371-.227.41.41,0,0,0-.439.229.51.51,0,0,0,.092.539.249.249,0,0,0,.177.034c.263,0,.532.006.795,0,.127,0,.185.02.185.168,0,.286,0,.286-.289.286-.516,0-1.033-.006-1.549,0-.149,0-.218-.033-.192-.193.014-.13-.06-.314.194-.274A.617.617,0,0,0-8267.595,4140.922Z" transform="translate(8267.938 -4075.543)" fill="#155e2d"/>
      <path id="Path_33196" data-name="Path 33196" d="M-6907.356,4099.952h-.439c-.057,0-.118.007-.109-.079.007-.058-.033-.151.059-.151.146,0,.1-.088.1-.165a.417.417,0,0,1,.237-.444.5.5,0,0,1,.56.09c.043.043.145.084.066.161-.057.054-.136.137-.225.018a.279.279,0,0,0-.121-.073.2.2,0,0,0-.226.065.222.222,0,0,0-.038.235c.034.1.113.1.2.1.1,0,.208,0,.312,0s.141.014.143.121-.053.123-.142.12C-6907.108,4099.947-6907.233,4099.952-6907.356,4099.952Z" transform="translate(6964.884 -4036.611)" fill="#206d30"/>
      <path id="Path_33197" data-name="Path 33197" d="M-6989.13,4088.658c-.3,0-.434-.165-.3-.444.083-.178.3-.043.453-.07.057-.011.156-.042.162.068.009.125,0,.25,0,.374,0,.07-.049.073-.1.073S-6989.06,4088.658-6989.13,4088.658Z" transform="translate(7043.043 -4026.121)" fill="#206d30"/>
      <path id="Path_33198" data-name="Path 33198" d="M-7150.312,4095.189c-.089-.026-.247.063-.293-.045a1.165,1.165,0,0,1-.013-.412.053.053,0,0,1,.05-.058c.173,0,.349,0,.521,0,.044,0,.052.042.052.079s0,.083,0,.125C-7149.992,4095.189-7149.992,4095.189-7150.312,4095.189Z" transform="translate(7197.438 -4032.4)" fill="#206d30"/>
      <path id="Path_33199" data-name="Path 33199" d="M-7453.865,4089.1c-.32,0-.406-.118-.323-.438.011-.048.03-.078.079-.078h.478c.06,0,.071.04.071.085s0,.081,0,.124C-7453.558,4089.1-7453.558,4089.1-7453.865,4089.1Z" transform="translate(7488.308 -4026.569)" fill="#206d30"/>
      <path id="Path_33200" data-name="Path 33200" d="M-7175.106,4094.574c.305,0,.4.13.316.446-.029.107-.107.08-.167.072-.151-.025-.352.092-.451-.065-.059-.1-.01-.256-.01-.388,0-.055.04-.065.084-.065Z" transform="translate(7221.207 -4032.306)" fill="#206d30"/>
      <path id="Path_33201" data-name="Path 33201" d="M-6848.165,4188.914c-.083-.021-.236.055-.272-.038a1.133,1.133,0,0,1-.013-.412.057.057,0,0,1,.064-.06h.481a.063.063,0,0,1,.068.063c0,.043,0,.083,0,.125C-6847.829,4188.914-6847.829,4188.914-6848.165,4188.914Z" transform="translate(6907.931 -4122.219)" fill="#155e2d"/>
      <path id="Path_33202" data-name="Path 33202" d="M-7363.761,4188.455c-.31,0-.428-.139-.3-.437.075-.177.3-.042.45-.072.058-.011.153-.036.158.076s0,.236,0,.355c0,.066-.043.078-.1.077Z" transform="translate(7401.978 -4121.762)" fill="#155e2d"/>
      <path id="Path_33203" data-name="Path 33203" d="M-8163.517,4107.307c.122.021.281-.045.313.037a.546.546,0,0,1,.011.42c-.094.156-.3.042-.456.064-.054.007-.14.038-.146-.064a1.1,1.1,0,0,1,.01-.392C-8163.743,4107.235-8163.592,4107.361-8163.517,4107.307Z" transform="translate(8168.171 -4044.503)" fill="#206d30"/>
      <path id="Path_33204" data-name="Path 33204" d="M-7893.268,4088.858c-.062,0-.113,0-.159,0-.112.016-.157-.022-.157-.145,0-.374-.008-.376.382-.372.079,0,.2-.046.222.042a.64.64,0,0,1-.007.443C-7893.032,4088.91-7893.181,4088.842-7893.268,4088.858Z" transform="translate(7909.268 -4026.324)" fill="#206d30"/>
      <path id="Path_33205" data-name="Path 33205" d="M-7868.462,4088.324c.088.015.249-.049.28.028a1.236,1.236,0,0,1,.023.428c0,.04-.028.06-.068.06h-.476c-.065,0-.083-.039-.083-.095a.907.907,0,0,0,0-.1C-7868.788,4088.324-7868.788,4088.324-7868.462,4088.324Z" transform="translate(7885.508 -4026.308)" fill="#206d30"/>
      <path id="Path_33206" data-name="Path 33206" d="M-6964.381,4088.617c-.326,0-.428-.108-.306-.431.076-.206.327-.045.494-.085.086-.019.13.022.122.114a.8.8,0,0,0,0,.083C-6964.071,4088.617-6964.071,4088.617-6964.381,4088.617Z" transform="translate(7019.332 -4026.082)" fill="#206d30"/>
      <path id="Path_33207" data-name="Path 33207" d="M-7388.445,4188.466c-.318,0-.428-.116-.3-.43.075-.188.315-.042.479-.078.075-.016.14,0,.133.1a.89.89,0,0,0,0,.207c.025.169-.05.221-.208.2A.877.877,0,0,0-7388.445,4188.466Z" transform="translate(7425.629 -4121.774)" fill="#155e2d"/>
      <path id="Path_33208" data-name="Path 33208" d="M-6872.69,4188.377c.322,0,.426.115.31.431-.07.192-.292.044-.44.077-.056.011-.167.054-.17-.079-.006-.117,0-.233,0-.351,0-.065.037-.081.092-.078S-6872.76,4188.377-6872.69,4188.377Z" transform="translate(6931.434 -4122.195)" fill="#155e2d"/>
      <path id="Path_33209" data-name="Path 33209" d="M-7428.59,4089.157c-.087-.017-.244.051-.278-.032a1.278,1.278,0,0,1-.022-.426.055.055,0,0,1,.05-.055c.173,0,.346,0,.521,0,.04,0,.055.035.055.071s0,.083,0,.125C-7428.263,4089.157-7428.263,4089.157-7428.59,4089.157Z" transform="translate(7464.05 -4026.622)" fill="#206d30"/>
      <path id="Path_33210" data-name="Path 33210" d="M-8070.059,4097.473c-.3,0-.425-.152-.3-.442.067-.159.269-.052.407-.066.067,0,.186-.064.2.066a2.653,2.653,0,0,1,0,.374c0,.068-.055.067-.1.067Z" transform="translate(8078.684 -4034.576)" fill="#206d30"/>
      <path id="Path_33211" data-name="Path 33211" d="M-7473.968,3273.909l.071.007c-.046.176-.088.353-.131.53l-.042-.008C-7474.038,3274.262-7474,3274.085-7473.968,3273.909Z" transform="translate(7507.329 -3245.891)" fill="#f3a772"/>
      <path id="Path_33212" data-name="Path 33212" d="M-7125.226,3413.3a.1.1,0,0,1-.006-.028s.012-.011.015-.008a.113.113,0,0,1,.024.02C-7125.2,3413.292-7125.216,3413.3-7125.226,3413.3Z" transform="translate(7173.104 -3379.431)" fill="#fefefe"/>
      <path id="Path_33213" data-name="Path 33213" d="M-7792.035,3415.254a.041.041,0,0,1-.053-.029.118.118,0,0,1,.016-.017c.012.017.023.031.036.048Z" transform="translate(7812.024 -3381.293)" fill="#fefefe"/>
      <path id="Path_33214" data-name="Path 33214" d="M-7790.857,3416.265c.007,0,.013,0,.014.009a.039.039,0,0,1,0,.012c0-.007-.006-.016-.009-.023Z" transform="translate(7810.844 -3382.303)" fill="#fefefe"/>
    </g>
  </g>
  <g id="Path_33448" data-name="Path 33448" fill="none">
    <path d="M60.9,0A60.9,60.9,0,1,1,0,60.9,60.905,60.905,0,0,1,60.9,0Z" stroke="none"/>
    <path d="M 60.90499877929688 3 C 53.0865478515625 3 45.50356292724609 4.53057861328125 38.36666870117188 7.549232482910156 C 34.93621826171875 9.000198364257812 31.62730407714844 10.79623413085938 28.53185272216797 12.88748931884766 C 25.46503448486328 14.95938110351562 22.58103179931641 17.33890533447266 19.95998382568359 19.95998382568359 C 17.33890533447266 22.58103179931641 14.95938110351562 25.46503448486328 12.88748931884766 28.53185272216797 C 10.79623413085938 31.62730407714844 9.000198364257812 34.93621826171875 7.549232482910156 38.36666870117188 C 4.53057861328125 45.50356292724609 3 53.0865478515625 3 60.90499877929688 C 3 68.72344970703125 4.53057861328125 76.30643463134766 7.549232482910156 83.44332885742188 C 9.000198364257812 86.873779296875 10.79623413085938 90.18269348144531 12.88748931884766 93.27814483642578 C 14.95938110351562 96.34496307373047 17.33890533447266 99.22895812988281 19.95998382568359 101.8500213623047 C 22.58103179931641 104.4710922241211 25.46503448486328 106.8506164550781 28.53185272216797 108.9225082397461 C 31.62730407714844 111.0137634277344 34.93621826171875 112.8097991943359 38.36666870117188 114.2607650756836 C 45.50356292724609 117.2794189453125 53.0865478515625 118.8099975585938 60.90499877929688 118.8099975585938 C 68.72344970703125 118.8099975585938 76.30643463134766 117.2794189453125 83.44332885742188 114.2607650756836 C 86.873779296875 112.8097991943359 90.18269348144531 111.0137634277344 93.27814483642578 108.9225082397461 C 96.34496307373047 106.8506164550781 99.22895812988281 104.4710922241211 101.8500213623047 101.8500213623047 C 104.4710922241211 99.22895812988281 106.8506164550781 96.34496307373047 108.9225082397461 93.27814483642578 C 111.0137634277344 90.18269348144531 112.8097991943359 86.873779296875 114.2607650756836 83.44332885742188 C 117.2794189453125 76.30643463134766 118.8099975585938 68.72344970703125 118.8099975585938 60.90499877929688 C 118.8099975585938 53.0865478515625 117.2794189453125 45.50356292724609 114.2607650756836 38.36666870117188 C 112.8097991943359 34.93621826171875 111.0137634277344 31.62730407714844 108.9225082397461 28.53185272216797 C 106.8506164550781 25.46503448486328 104.4710922241211 22.58103179931641 101.8500213623047 19.95998382568359 C 99.22895812988281 17.33890533447266 96.34496307373047 14.95938110351562 93.27814483642578 12.88748931884766 C 90.18269348144531 10.79623413085938 86.873779296875 9.000198364257812 83.44332885742188 7.549232482910156 C 76.30643463134766 4.53057861328125 68.72344970703125 3 60.90499877929688 3 M 60.90499877929688 0 C 94.54190826416016 0 121.8099975585938 27.26808929443359 121.8099975585938 60.90499877929688 C 121.8099975585938 94.54190826416016 94.54190826416016 121.8099975585938 60.90499877929688 121.8099975585938 C 27.26808929443359 121.8099975585938 0 94.54190826416016 0 60.90499877929688 C 0 27.26808929443359 27.26808929443359 0 60.90499877929688 0 Z" stroke="none" fill="#518432"/>
  </g>
</svg>
