<svg xmlns="http://www.w3.org/2000/svg" width="29.016" height="28.652" viewBox="0 0 29.016 28.652">
  <g id="Group_39544" data-name="Group 39544" transform="translate(-238.852 -0.174)">
    <path id="Path_33222" data-name="Path 33222" d="M3.375,28.721a3.306,3.306,0,0,0,3.306,3.306h22.04a3.306,3.306,0,0,0,3.306-3.306V17.7a1.1,1.1,0,1,0-2.2,0v11.02a1.1,1.1,0,0,1-1.1,1.1H6.681a1.1,1.1,0,0,1-1.1-1.1V6.681a1.1,1.1,0,0,1,1.1-1.1H24.313a1.1,1.1,0,0,0,0-2.2H6.681A3.306,3.306,0,0,0,3.375,6.681Z" transform="translate(235.477 -3.201)" fill="#585858" fill-rule="evenodd"/>
    <path id="Path_33223" data-name="Path 33223" d="M30.583,5.9a.942.942,0,0,1,0,1.335L17.389,20.429a.942.942,0,0,1-1.335,0L10.4,14.774a.944.944,0,0,1,1.335-1.335l4.988,4.989L29.249,5.9a.942.942,0,0,1,1.335,0Z" transform="translate(237.008 -2.449)" fill="#518432" fill-rule="evenodd"/>
  </g>
</svg>
