<svg xmlns="http://www.w3.org/2000/svg" width="22.394" height="18.049" viewBox="0 0 22.394 18.049">
  <g id="Group_36575" data-name="Group 36575" transform="translate(-63.226 -269.975)">
    <path id="Path_10995" data-name="Path 10995" d="M2371.052,926.993h0c4.063,0,7.874-2.113,10.731-5.951a.245.245,0,0,0,0-.293c-2.868-3.838-6.682-5.951-10.739-5.951h-.011c-4.054,0-7.858,2.117-10.711,5.951a.245.245,0,0,0,0,.293C2363.177,924.879,2366.989,926.993,2371.052,926.993Zm10.227-6.1c-2.749,3.617-6.374,5.607-10.227,5.607s-7.479-1.989-10.227-5.607c2.746-3.614,6.365-5.6,10.208-5.607h.011C2374.891,915.289,2378.519,917.278,2381.279,920.9Z" transform="translate(-2296.629 -641.304)" fill="#518432" stroke="#518432" stroke-width="0.5"/>
    <path id="Path_10996" data-name="Path 10996" d="M2369.209,925.294c4.112,0,7.966-2.135,10.852-6.012a.4.4,0,0,0,0-.473c-2.9-3.876-6.754-6.011-10.86-6.011h-.011c-4.1,0-7.95,2.139-10.832,6.012a.4.4,0,0,0,0,.473C2361.243,923.159,2365.1,925.294,2369.209,925.294Zm-.009-12.2c4.009,0,7.78,2.092,10.619,5.89a.1.1,0,0,1,0,.113c-2.827,3.8-6.6,5.89-10.61,5.89s-7.783-2.092-10.61-5.89a.1.1,0,0,1,0-.113c2.824-3.795,6.585-5.887,10.59-5.891Zm.009,11.7c3.9,0,7.57-2.012,10.347-5.666l.069-.091-.069-.091c-2.788-3.654-6.465-5.667-10.355-5.667h-.011c-3.886,0-7.554,2.016-10.328,5.666l-.069.091.069.091C2361.639,922.791,2365.313,924.8,2369.209,924.8Zm10.037-5.757c-2.709,3.519-6.27,5.456-10.037,5.456s-7.328-1.937-10.038-5.456c2.707-3.516,6.26-5.453,10.018-5.456h.011C2372.962,913.59,2376.526,915.527,2379.247,919.047Z" transform="translate(-2294.787 -639.454)" fill="#518432" stroke="#518432" stroke-width="0.5"/>
    <path id="Path_10997" data-name="Path 10997" d="M2443.552,940.767a4.877,4.877,0,1,0-4.876-4.877A4.882,4.882,0,0,0,2443.552,940.767Zm0-9.263a4.386,4.386,0,1,1-4.386,4.386A4.391,4.391,0,0,1,2443.552,931.5Z" transform="translate(-2369.13 -656.299)" fill="#518432" stroke="#518432" stroke-width="0.5"/>
    <path id="Path_10998" data-name="Path 10998" d="M2441.7,939.069a5.027,5.027,0,1,0-5.027-5.027A5.033,5.033,0,0,0,2441.7,939.069Zm0-9.753a4.726,4.726,0,1,1-4.726,4.726A4.732,4.732,0,0,1,2441.7,929.315Zm0,9.263a4.537,4.537,0,1,0-4.536-4.537A4.542,4.542,0,0,0,2441.7,938.578Zm0-8.772a4.236,4.236,0,1,1-4.235,4.236A4.24,4.24,0,0,1,2441.7,929.806Z" transform="translate(-2367.281 -654.449)" fill="#518432" stroke="#518432" stroke-width="0.5"/>
    <path id="Path_10999" data-name="Path 10999" d="M2468.5,963.687a2.845,2.845,0,1,0-2.845-2.845A2.849,2.849,0,0,0,2468.5,963.687Zm0-5.34a2.495,2.495,0,1,1-2.495,2.495A2.5,2.5,0,0,1,2468.5,958.346Z" transform="translate(-2394.08 -681.249)" fill="#518432" stroke="#518432" stroke-width="0.5"/>
    <path id="Path_11000" data-name="Path 11000" d="M2466.653,961.988a3,3,0,1,0-3-3A3,3,0,0,0,2466.653,961.988Zm0-5.691a2.695,2.695,0,1,1-2.695,2.695A2.7,2.7,0,0,1,2466.653,956.3Zm0,5.34a2.645,2.645,0,1,0-2.646-2.645A2.648,2.648,0,0,0,2466.653,961.637Zm0-4.99a2.344,2.344,0,1,1-2.344,2.344A2.347,2.347,0,0,1,2466.653,956.648Z" transform="translate(-2392.23 -679.4)" fill="#518432" stroke="#518432" stroke-width="0.5"/>
    <path id="Path_11001" data-name="Path 11001" d="M2381.417,890.629a.226.226,0,0,0,.14-.4l-21.14-16.8a.226.226,0,1,0-.281.354l21.14,16.8A.224.224,0,0,0,2381.417,890.629Z" transform="translate(-2296.425 -603.005)" fill="#518432" stroke="#518432" stroke-width="0.5"/>
    <path id="Path_11002" data-name="Path 11002" d="M2379.567,888.931a.377.377,0,0,0,.234-.671l-21.14-16.8a.376.376,0,1,0-.468.59l21.14,16.8A.378.378,0,0,0,2379.567,888.931Zm-21.14-17.247a.074.074,0,0,1,.047.016l21.14,16.8a.076.076,0,0,1,.028.05.074.074,0,0,1-.016.055.075.075,0,0,1-.106.012l-21.14-16.8a.076.076,0,0,1-.028-.05.075.075,0,0,1,.066-.083Z" transform="translate(-2294.574 -601.157)" fill="#518432" stroke="#518432" stroke-width="0.5"/>
  </g>
</svg>
