<svg id="Group_37581" data-name="Group 37581" xmlns="http://www.w3.org/2000/svg" width="337.162" height="188.562" viewBox="0 0 337.162 188.562">
  <g id="Rectangle_5999" data-name="Rectangle 5999" fill="none" stroke="#e0e0e0" stroke-width="2" stroke-dasharray="18 7">
    <rect width="337.162" height="188.562" rx="7" stroke="none"/>
    <rect x="1" y="1" width="335.162" height="186.562" rx="6" fill="none"/>
  </g>
  <rect id="Rectangle_6579" data-name="Rectangle 6579" width="290.456" height="147.694" rx="7" transform="translate(23.353 20.434)" fill="#e0e0e0" opacity="0.477"/>
  <text id="اضافة_صورة_جديدة" data-name="اضافة صورة جديدة" transform="translate(246.951 64.203)" fill="#707070" font-size="23" font-family="SegoeUI-Bold, Segoe UI" font-weight="700"><tspan x="-179.766" y="0">اضافة صورة جديدة</tspan></text>
  <g id="Group_36013" data-name="Group 36013" transform="translate(141.765 87.623)">
    <circle id="Ellipse_949" data-name="Ellipse 949" cx="26.814" cy="26.814" r="26.814" fill="#707070"/>
    <g id="camera" transform="translate(10.302 13.408)">
      <path id="Path_32452" data-name="Path 32452" d="M30.962,25.142V12.757A2.064,2.064,0,0,0,28.9,10.692H26.479A6.192,6.192,0,0,1,22.1,8.878L20.39,7.169a2.064,2.064,0,0,0-1.456-.6h-4.84a2.064,2.064,0,0,0-1.46.6L10.925,8.878a6.192,6.192,0,0,1-4.378,1.815H4.128a2.064,2.064,0,0,0-2.064,2.064V25.142a2.064,2.064,0,0,0,2.064,2.064H28.9A2.064,2.064,0,0,0,30.962,25.142ZM4.128,8.628A4.128,4.128,0,0,0,0,12.757V25.142A4.128,4.128,0,0,0,4.128,29.27H28.9a4.128,4.128,0,0,0,4.128-4.128V12.757A4.128,4.128,0,0,0,28.9,8.628H26.479a4.128,4.128,0,0,1-2.918-1.21L21.852,5.709A4.128,4.128,0,0,0,18.932,4.5H14.094a4.128,4.128,0,0,0-2.918,1.21L9.467,7.419A4.128,4.128,0,0,1,6.548,8.628Z" transform="translate(0 -4.5)" fill="#fff" fill-rule="evenodd"/>
      <path id="Path_32453" data-name="Path 32453" d="M17.35,23.635a5.16,5.16,0,1,0-5.16-5.16A5.16,5.16,0,0,0,17.35,23.635Zm0,2.064a7.225,7.225,0,1,0-7.225-7.225A7.225,7.225,0,0,0,17.35,25.7Z" transform="translate(-0.836 -5.058)" fill="#fff" fill-rule="evenodd"/>
      <path id="Path_32454" data-name="Path 32454" d="M6.564,14.532A1.032,1.032,0,1,1,5.532,13.5,1.032,1.032,0,0,1,6.564,14.532Z" transform="translate(-0.372 -5.243)" fill="#fff"/>
    </g>
  </g>
</svg>
