<svg id="info-circle" xmlns="http://www.w3.org/2000/svg" width="14.645" height="14.645" viewBox="0 0 14.645 14.645">
  <path id="Path_33455" data-name="Path 33455" d="M7.322,13.729A6.407,6.407,0,1,0,.915,7.322,6.407,6.407,0,0,0,7.322,13.729Zm0,.915A7.322,7.322,0,1,0,0,7.322,7.322,7.322,0,0,0,7.322,14.645Z" fill="#5f5455" fill-rule="evenodd"/>
  <path id="Path_33456" data-name="Path 33456" d="M17.4,14.823l-2.611.327-.093.433.513.095c.335.08.4.2.328.535l-.841,3.955c-.221,1.023.12,1.5.921,1.5a2.362,2.362,0,0,0,1.671-.682l.1-.474a1.263,1.263,0,0,1-.783.28c-.314,0-.428-.22-.347-.608Z" transform="translate(-9.014 -9.111)" fill="#5f5455"/>
  <path id="Path_33457" data-name="Path 33457" d="M18.031,9.015a1.14,1.14,0,1,1-1.14-1.14A1.14,1.14,0,0,1,18.031,9.015Z" transform="translate(-9.568 -5.684)" fill="#5f5455"/>
</svg>
