<svg xmlns="http://www.w3.org/2000/svg" width="151.511" height="154.32" viewBox="0 0 151.511 154.32">
  <path id="shield-alt" d="M145.587,24.195c-.432-.046-43.518-4.566-63.765-21.845L80.388,1.125h-8.9L70.051,2.35C49.844,19.6,6.727,24.154,6.295,24.195l-4.607.464v4.634c0,28.528,4.689,52.954,13.929,72.6,12.195,25.915,32.037,42.785,58.976,50.132l1.347.369,1.347-.369c26.939-7.347,46.781-24.212,58.976-50.132,9.245-19.647,13.934-44.068,13.934-72.6V24.659Zm-5.676,9.614q-.077,4.092-.3,8.285H81.062V14.54c19.178,12.664,47.7,17.707,58.849,19.269ZM81.062,98.425H126.6a92.248,92.248,0,0,1-7.479,12.8H81.062Zm0-10.242v-12.8H134.8A128.875,128.875,0,0,1,130.561,89.1v-.92Zm0-23.047v-12.8H138.8c-.446,4.261-1.042,8.54-1.8,12.8ZM11.971,33.809C23.124,32.247,51.642,27.2,70.82,14.54V140.1C24.093,123.516,12.727,74.545,11.971,33.809ZM81.062,140.1V121.472h29.556a76.91,76.91,0,0,1-29.556,18.636Z" transform="translate(-0.188 0.375)" fill="none" stroke="#518432" stroke-width="3"/>
</svg>
